name rise30.3154peak39.0474fall46.5389.mot
datacolumns 19
datarows 15
range 17.43993400000000 17.46326900000000
endheader
time	ground_force1_vx	ground_force1_vy	ground_force1_vz	ground_force1_px	ground_force1_py	ground_force1_pz	ground_force2_vx	ground_force2_vy	ground_force2_vz	ground_force2_px	ground_force2_py	ground_force2_pz	ground_torque1_x	ground_torque1_y	ground_torque1_z	ground_torque2_x	ground_torque2_y	ground_torque2_z	
17.43993400000000	65.05979900000000	757.74970499999995	59.74794900000000	0.40344300000000	0.00000000000000	0.14490300000000	0.00000000000000	0.00000000000000	0.00000000000000	0.00000000000000	0.00000000000000	0.00000000000000	0.00000000000000	27.59523300000000	0.00000000000000	0.00000000000000	0.00000000000000	0.00000000000000	
17.44160700000000	64.16832200000000	759.74003100000004	59.71213900000000	0.40220000000000	0.00000000000000	0.14489100000000	0.00000000000000	0.00000000000000	0.00000000000000	0.00000000000000	0.00000000000000	0.00000000000000	0.00000000000000	27.64612300000000	0.00000000000000	0.00000000000000	0.00000000000000	0.00000000000000	
17.44326900000000	63.28293000000000	761.63362600000005	59.68570300000000	0.40096500000000	0.00000000000000	0.14488300000000	0.00000000000000	0.00000000000000	0.00000000000000	0.00000000000000	0.00000000000000	0.00000000000000	0.00000000000000	27.70399800000000	0.00000000000000	0.00000000000000	0.00000000000000	0.00000000000000	
17.44494000000000	62.40438200000000	763.42867600000000	59.66885000000000	0.39973600000000	0.00000000000000	0.14487700000000	0.00000000000000	0.00000000000000	0.00000000000000	0.00000000000000	0.00000000000000	0.00000000000000	0.00000000000000	27.76887800000000	0.00000000000000	0.00000000000000	0.00000000000000	0.00000000000000	
17.44660600000000	61.53334400000000	765.12343199999998	59.66166300000000	0.39851500000000	0.00000000000000	0.14487300000000	0.00000000000000	0.00000000000000	0.00000000000000	0.00000000000000	0.00000000000000	0.00000000000000	0.00000000000000	27.84070100000000	0.00000000000000	0.00000000000000	0.00000000000000	0.00000000000000	
17.44826900000000	60.67038800000000	766.71622600000001	59.66410600000000	0.39730000000000	0.00000000000000	0.14487300000000	0.00000000000000	0.00000000000000	0.00000000000000	0.00000000000000	0.00000000000000	0.00000000000000	0.00000000000000	27.91932600000000	0.00000000000000	0.00000000000000	0.00000000000000	0.00000000000000	
17.44993500000000	59.81600200000000	768.20549000000005	59.67602600000000	0.39609200000000	0.00000000000000	0.14487500000000	0.00000000000000	0.00000000000000	0.00000000000000	0.00000000000000	0.00000000000000	0.00000000000000	0.00000000000000	28.00453400000000	0.00000000000000	0.00000000000000	0.00000000000000	0.00000000000000	
17.45160000000000	58.97059000000000	769.58976700000005	59.69715800000000	0.39489100000000	0.00000000000000	0.14488000000000	0.00000000000000	0.00000000000000	0.00000000000000	0.00000000000000	0.00000000000000	0.00000000000000	0.00000000000000	28.09603400000000	0.00000000000000	0.00000000000000	0.00000000000000	0.00000000000000	
17.45327400000000	58.13447700000000	770.86772599999995	59.72713300000000	0.39369700000000	0.00000000000000	0.14488800000000	0.00000000000000	0.00000000000000	0.00000000000000	0.00000000000000	0.00000000000000	0.00000000000000	0.00000000000000	28.19346900000000	0.00000000000000	0.00000000000000	0.00000000000000	0.00000000000000	
17.45494100000000	57.30791100000000	772.03817800000002	59.76548400000000	0.39250800000000	0.00000000000000	0.14489800000000	0.00000000000000	0.00000000000000	0.00000000000000	0.00000000000000	0.00000000000000	0.00000000000000	0.00000000000000	28.29641500000000	0.00000000000000	0.00000000000000	0.00000000000000	0.00000000000000	
17.45660500000000	56.49107000000000	773.10008300000004	59.81164900000000	0.39132600000000	0.00000000000000	0.14491000000000	0.00000000000000	0.00000000000000	0.00000000000000	0.00000000000000	0.00000000000000	0.00000000000000	0.00000000000000	28.40439200000000	0.00000000000000	0.00000000000000	0.00000000000000	0.00000000000000	
17.45826700000000	55.68406700000000	774.05256999999995	59.86498400000000	0.39014900000000	0.00000000000000	0.14492400000000	0.00000000000000	0.00000000000000	0.00000000000000	0.00000000000000	0.00000000000000	0.00000000000000	0.00000000000000	28.51686400000000	0.00000000000000	0.00000000000000	0.00000000000000	0.00000000000000	
17.45993900000000	54.88695200000000	774.89493900000002	59.92476300000000	0.38897700000000	0.00000000000000	0.14494100000000	0.00000000000000	0.00000000000000	0.00000000000000	0.00000000000000	0.00000000000000	0.00000000000000	0.00000000000000	28.63324700000000	0.00000000000000	0.00000000000000	0.00000000000000	0.00000000000000	
17.46160300000000	54.09971800000000	775.62667599999997	59.99019400000000	0.38781000000000	0.00000000000000	0.14496000000000	0.00000000000000	0.00000000000000	0.00000000000000	0.00000000000000	0.00000000000000	0.00000000000000	0.00000000000000	28.75291500000000	0.00000000000000	0.00000000000000	0.00000000000000	0.00000000000000	
17.46326900000000	53.32230900000000	776.24746200000004	60.06041900000000	0.38664700000000	0.00000000000000	0.14498100000000	0.00000000000000	0.00000000000000	0.00000000000000	0.00000000000000	0.00000000000000	0.00000000000000	0.00000000000000	28.87520200000000	0.00000000000000	0.00000000000000	0.00000000000000	0.00000000000000	
